<svg width="171" height="227" viewBox="0 0 171 227" style="fill: none" xmlns="http://www.w3.org/2000/svg">
<path id="logo_w" d="M65.6478 1.45285C68.4217 0.570943 71.1239 2.74869 71.1239 5.67827V107.449C71.1239 141.594 53.1412 171.509 26.1937 188.111C24.2078 189.335 21.6332 188.73 20.3763 186.757C7.66907 166.804 0 140.938 0 112.678C0 58.6773 28.0009 13.4217 65.6478 1.45285Z" fill="white"/>
<path id="logo_n" d="M100.522 0.11385C97.8162 -0.527247 95.3363 1.62456 95.3363 4.42355V31.8032C95.3363 34.3283 97.3688 36.3753 99.8761 36.3753L140.625 36.3753C144.264 36.3753 146.382 32.3036 144.11 29.4418C132.263 14.5218 117.23 4.07345 100.522 0.11385Z" fill="white"/>
<path id="logo_s" d="M99.8761 60.7598C97.3688 60.7598 95.3363 62.8068 95.3363 65.3319V107.449C95.3363 148.032 75.1439 183.865 44.3255 205.314C41.7962 207.074 41.5066 210.798 43.9793 212.638C56.2735 221.788 70.4315 227 85.5 227C105.66 227 124.19 217.671 138.807 202.065C141.402 199.295 139.34 194.955 135.558 194.955H102.111C98.9897 194.955 96.7994 191.857 97.821 188.887L139.802 66.8284C140.823 63.8583 138.633 60.7598 135.512 60.7598H99.8761Z" fill="white"/>
<path id="logo_e" d="M171 112.678C171 132.68 167.158 151.483 160.407 167.838C159.718 169.508 158.084 170.571 156.288 170.571H136.121C133 170.571 130.81 167.472 131.832 164.502L160.074 82.3862C161.51 78.2133 167.156 78.3862 168.033 82.7132C169.968 92.2631 171 102.309 171 112.678Z" fill="white"/>
</svg>
